<svg width="50" height="50" viewBox="0 0 50 50" fill="none" xmlns="http://www.w3.org/2000/svg">
<path d="M39.6874 10.2292C37.7774 8.29987 35.5024 6.77016 32.995 5.7293C30.4876 4.68843 27.7981 4.15723 25.0832 4.16669C13.7083 4.16669 4.43742 13.4375 4.43742 24.8125C4.43742 28.4584 5.39575 32 7.18742 35.125L4.27075 45.8334L15.2083 42.9584C18.2291 44.6042 21.6249 45.4792 25.0832 45.4792C36.4582 45.4792 45.7291 36.2084 45.7291 24.8334C45.7291 19.3125 43.5832 14.125 39.6874 10.2292ZM25.0832 41.9792C21.9999 41.9792 18.9791 41.1459 16.3333 39.5834L15.7083 39.2084L9.20825 40.9167L10.9374 34.5834L10.5208 33.9375C8.80772 31.202 7.89813 28.0401 7.89575 24.8125C7.89575 15.3542 15.6041 7.64586 25.0624 7.64586C29.6457 7.64586 33.9582 9.43752 37.1874 12.6875C38.7863 14.2791 40.0535 16.1722 40.9153 18.2572C41.7772 20.3421 42.2166 22.5773 42.2082 24.8334C42.2499 34.2917 34.5416 41.9792 25.0832 41.9792ZM34.4999 29.1459C33.9791 28.8959 31.4374 27.6459 30.9791 27.4584C30.4999 27.2917 30.1666 27.2084 29.8124 27.7084C29.4582 28.2292 28.4791 29.3959 28.1874 29.7292C27.8957 30.0834 27.5832 30.125 27.0624 29.8542C26.5416 29.6042 24.8749 29.0417 22.9166 27.2917C21.3749 25.9167 20.3541 24.2292 20.0416 23.7084C19.7499 23.1875 19.9999 22.9167 20.2707 22.6459C20.4999 22.4167 20.7916 22.0417 21.0416 21.75C21.2916 21.4584 21.3958 21.2292 21.5624 20.8959C21.7291 20.5417 21.6457 20.25 21.5207 20C21.3957 19.75 20.3541 17.2084 19.9374 16.1667C19.5207 15.1667 19.0833 15.2917 18.7708 15.2709H17.7707C17.4166 15.2709 16.8749 15.3959 16.3957 15.9167C15.9374 16.4375 14.6041 17.6875 14.6041 20.2292C14.6041 22.7709 16.4583 25.2292 16.7083 25.5625C16.9583 25.9167 20.3541 31.125 25.5207 33.3542C26.7499 33.8959 27.7082 34.2084 28.4582 34.4375C29.6874 34.8334 30.8124 34.7709 31.7082 34.6459C32.7082 34.5 34.7707 33.3959 35.1874 32.1875C35.6249 30.9792 35.6249 29.9584 35.4791 29.7292C35.3332 29.5 35.0207 29.3959 34.4999 29.1459Z" fill="white"/>
</svg>
