<svg width="40" height="40" viewBox="0 0 40 40" fill="none" xmlns="http://www.w3.org/2000/svg">
<g clip-path="url(#clip0_2036_4550)">
<path d="M29.3007 10.6458L32.4605 7.47374C34.1656 5.76203 34.1602 2.98239 32.4485 1.27734C31.6213 0.453386 30.5236 0 29.3565 0C29.3536 0 29.3506 0 29.3477 0C28.1774 0.00227006 27.078 0.460196 26.2521 1.28932L26.1057 1.43624L25.9593 1.28932C25.1333 0.460117 24.0339 0.00227006 22.8636 0C22.8607 0 22.8578 0 22.8549 0C21.6878 0 20.59 0.453386 19.763 1.27734C18.0513 2.98231 18.0458 5.76203 19.7509 7.47374L22.9107 10.6458H12.2114V18.865H13.3855V22.3875H0V29.0411H1.17417V40H19.7652H20.3523H38.8258V18.865H40V10.6458H29.3007ZM20.5827 6.64509C19.3346 5.39209 19.3386 3.35726 20.5916 2.1092C21.197 1.50607 22.0005 1.17417 22.8549 1.17417H22.8613C23.718 1.17581 24.5229 1.511 25.1274 2.11796L26.1057 3.10004L27.0839 2.11804C27.6885 1.51108 28.4933 1.17589 29.35 1.17425H29.3564C30.2107 1.17425 31.0143 1.50614 31.6197 2.10928C32.8727 3.35734 32.8767 5.39217 31.6286 6.64517L27.6434 10.6458H24.568L20.5827 6.64509ZM13.3855 11.82H22.3875V17.6908H13.3855V11.82ZM1.17417 23.5616H7.4364V27.8669H1.17417V23.5616ZM8.61057 38.8258H2.34834V29.0411H8.61057V38.8258ZM8.61057 23.5616H12.9159V27.8669H8.61057V23.5616ZM11.7417 38.8258H9.78474V29.0411H11.7417V38.8258ZM19.1781 38.8258H12.9159V29.0411H19.1781V38.8258ZM14.09 27.8669V23.5616H20.3523V27.8669H14.09ZM23.5616 38.8258H20.3523V29.0411H21.5264V22.3875H14.5597V18.865H23.5616V38.8258ZM23.5616 11.82H28.6497V17.6908H23.5616V11.82ZM27.4755 38.8258H24.7358V18.865H27.4755V38.8258ZM37.6517 38.8258H28.6497V18.865H37.6517V38.8258ZM38.8258 17.6908H29.8239V11.82H38.8258V17.6908Z" fill="url(#paint0_linear_2036_4550)"/>
<path d="M9.74565 10.1862L13.7909 6.12525C14.3387 5.57535 14.6396 4.84501 14.638 4.06881C14.6364 3.29261 14.3329 2.56353 13.7829 2.01566C13.2343 1.4692 12.5063 1.16846 11.7323 1.16846C11.7304 1.16846 11.7283 1.16846 11.7265 1.16846C10.984 1.16987 10.2845 1.44783 9.74565 1.95335C9.20678 1.44783 8.50737 1.16987 7.76482 1.16846C7.76287 1.16846 7.76091 1.16846 7.75903 1.16846C6.98494 1.16846 6.25696 1.4692 5.70839 2.01566C5.15841 2.56353 4.85484 3.29268 4.85328 4.06889C4.85171 4.84509 5.15261 5.57542 5.7004 6.12533L9.74565 10.1862ZM6.53704 2.8476C6.864 2.52196 7.29782 2.3427 7.75911 2.3427H7.76255C8.2251 2.34356 8.65962 2.52454 8.98611 2.85229L9.74565 3.6148L10.5052 2.85229C10.8317 2.52454 11.2662 2.34356 11.7287 2.3427H11.7322C12.1936 2.3427 12.6274 2.52196 12.9543 2.8476C13.282 3.17401 13.4629 3.60861 13.4638 4.07116C13.4648 4.5337 13.2854 4.96893 12.959 5.29668L9.74565 8.52251L6.53226 5.29668C6.20584 4.96893 6.02651 4.5337 6.02745 4.07116C6.02839 3.60861 6.20929 3.17401 6.53704 2.8476Z" fill="url(#paint1_linear_2036_4550)"/>
<path d="M3.95307 17.0567L6.67855 14.3207C7.48121 13.5148 7.4787 12.2062 6.67291 11.4036C6.28348 11.0157 5.76677 10.8022 5.21726 10.8022C5.21592 10.8022 5.21452 10.8022 5.21311 10.8022C4.7508 10.8031 4.31189 10.9551 3.95299 11.2346C3.59401 10.9551 3.15526 10.8032 2.69287 10.8022C2.69138 10.8022 2.69013 10.8022 2.68872 10.8022C2.13921 10.8022 1.62242 11.0158 1.23307 11.4036C0.427275 12.2062 0.42477 13.5148 1.22743 14.3207L3.95307 17.0567ZM2.06187 12.2354C2.22962 12.0684 2.45217 11.9764 2.68888 11.9764H2.69068C2.92802 11.9769 3.15095 12.0697 3.31847 12.2379L3.95307 12.8749L4.58774 12.2379C4.75518 12.0697 4.97804 11.9769 5.21546 11.9764H5.21718C5.45381 11.9764 5.67651 12.0684 5.84426 12.2354C6.19142 12.5812 6.19244 13.1449 5.84669 13.492L3.95307 15.393L2.05945 13.492C1.71369 13.1449 1.71471 12.5812 2.06187 12.2354Z" fill="url(#paint2_linear_2036_4550)"/>
</g>
<defs>
<linearGradient id="paint0_linear_2036_4550" x1="-0.533333" y1="-3.32693e-06" x2="42.5946" y2="3.02652" gradientUnits="userSpaceOnUse">
<stop stop-color="#D4AF37"/>
<stop offset="0.25" stop-color="#CF953C"/>
<stop offset="0.677083" stop-color="#D4AF37"/>
<stop offset="1" stop-color="#CF953C"/>
</linearGradient>
<linearGradient id="paint1_linear_2036_4550" x1="4.72281" y1="1.16846" x2="15.2636" y2="1.97107" gradientUnits="userSpaceOnUse">
<stop stop-color="#D4AF37"/>
<stop offset="0.25" stop-color="#CF953C"/>
<stop offset="0.677083" stop-color="#D4AF37"/>
<stop offset="1" stop-color="#CF953C"/>
</linearGradient>
<linearGradient id="paint2_linear_2036_4550" x1="0.538384" y1="10.8022" x2="7.70577" y2="11.3372" gradientUnits="userSpaceOnUse">
<stop stop-color="#D4AF37"/>
<stop offset="0.25" stop-color="#CF953C"/>
<stop offset="0.677083" stop-color="#D4AF37"/>
<stop offset="1" stop-color="#CF953C"/>
</linearGradient>
<clipPath id="clip0_2036_4550">
<rect width="40" height="40" fill="white"/>
</clipPath>
</defs>
</svg>
