<svg width="40" height="40" viewBox="0 0 40 40" fill="none" xmlns="http://www.w3.org/2000/svg">
<path d="M33.6986 0H18.8258C17.2072 0 15.8904 1.31679 15.8904 2.93542V7.82779H6.30139C4.68276 7.82779 3.36597 9.14458 3.36597 10.7632V24.3836C3.36597 26.0022 4.68276 27.319 6.30139 27.319H15.8904V37.0646C15.8904 38.6832 17.2072 40 18.8258 40H33.6986C35.3173 40 36.6341 38.6832 36.6341 37.0646V2.93542C36.6341 1.31679 35.3173 0 33.6986 0ZM16.572 26.1448H6.30139C5.33019 26.1448 4.54014 25.3548 4.54014 24.3836V10.7632C4.54014 9.79202 5.33019 9.00196 6.30139 9.00196H28.2192C29.1904 9.00196 29.9804 9.79202 29.9804 10.7632V24.3836C29.9804 25.3548 29.1904 26.1448 28.2192 26.1448H24.4227V28.7378L16.572 26.1448ZM35.4599 37.0646C35.4599 38.0358 34.6698 38.8258 33.6986 38.8258H18.8258C17.8547 38.8258 17.0646 38.0358 17.0646 37.0646V32.955H35.4599V37.0646ZM35.4599 31.7808H17.0646V27.5441L25.5969 30.3621V27.319H28.2192C29.8378 27.319 31.1546 26.0022 31.1546 24.3836V10.7632C31.1546 9.14458 29.8378 7.82779 28.2192 7.82779H17.0646V5.87084H35.4599V31.7808ZM35.4599 4.69667H17.0646V2.93542C17.0646 1.96423 17.8547 1.17417 18.8258 1.17417H33.6986C34.6698 1.17417 35.4599 1.96423 35.4599 2.93542V4.69667Z" fill="url(#paint0_linear_2036_4515)"/>
<path d="M28.0235 34.1294H24.501V37.6519H28.0235V34.1294ZM26.8493 36.4777H25.6751V35.3036H26.8493V36.4777Z" fill="url(#paint1_linear_2036_4515)"/>
<path d="M24.3054 2.34814H28.2193V3.52231H24.3054V2.34814Z" fill="url(#paint2_linear_2036_4515)"/>
<path d="M29.3933 2.34814H30.5675V3.52231H29.3933V2.34814Z" fill="url(#paint3_linear_2036_4515)"/>
<path d="M21.957 2.34814H23.1312V3.52231H21.957V2.34814Z" fill="url(#paint4_linear_2036_4515)"/>
<path d="M21.9622 14.1831L23.4706 13.0658L22.3351 10.5674H18.9174L17.7819 13.0658L19.2902 14.1831C18.5347 14.3807 17.8447 14.7415 17.2602 15.2257C16.6758 14.7415 15.9857 14.3807 15.2302 14.1831L16.7386 13.0658L15.6032 10.5674H12.1855L11.05 13.0658L12.5583 14.1831C10.2897 14.7765 8.6106 16.8433 8.6106 19.2954C8.6106 22.2089 10.9808 24.5791 13.8944 24.5791C15.1723 24.5791 16.3455 24.1229 17.2603 23.365C18.1751 24.1229 19.3483 24.5791 20.6263 24.5791C23.5398 24.5791 25.91 22.2089 25.91 19.2954C25.91 16.8433 24.2309 14.7765 21.9622 14.1831ZM19.2436 12.6874L19.6736 11.7416H21.579L22.009 12.6874L20.6263 13.7116L19.2436 12.6874ZM12.5117 12.6874L12.9417 11.7416H14.8471L15.2771 12.6874L13.8944 13.7116L12.5117 12.6874ZM16.4421 22.5163C15.7411 23.072 14.8562 23.405 13.8944 23.405C11.6283 23.405 9.78476 21.5614 9.78476 19.2954C9.78476 17.0293 11.6283 15.1858 13.8944 15.1858C14.8562 15.1858 15.7411 15.5188 16.4421 16.0744C15.7535 16.9667 15.3425 18.0836 15.3425 19.2954C15.3425 20.5071 15.7535 21.6241 16.4421 22.5163ZM17.2603 21.6489C16.7924 20.9817 16.5167 20.1704 16.5167 19.2954C16.5167 18.4204 16.7924 17.609 17.2603 16.9419C17.7282 17.609 18.0039 18.4204 18.0039 19.2954C18.0039 20.1704 17.7282 20.9817 17.2603 21.6489ZM20.6263 23.405C19.6644 23.405 18.7795 23.072 18.0785 22.5163C18.7672 21.6241 19.1781 20.5071 19.1781 19.2954C19.1781 18.0836 18.7672 16.9667 18.0785 16.0744C18.7795 15.5188 19.6644 15.1858 20.6263 15.1858C22.8923 15.1858 24.7358 17.0293 24.7358 19.2954C24.7358 21.5614 22.8923 23.405 20.6263 23.405Z" fill="url(#paint5_linear_2036_4515)"/>
<defs>
<linearGradient id="paint0_linear_2036_4515" x1="2.92239" y1="-3.32693e-06" x2="38.8463" y2="2.0967" gradientUnits="userSpaceOnUse">
<stop stop-color="#D4AF37"/>
<stop offset="0.25" stop-color="#CF953C"/>
<stop offset="0.677083" stop-color="#D4AF37"/>
<stop offset="1" stop-color="#CF953C"/>
</linearGradient>
<linearGradient id="paint1_linear_2036_4515" x1="24.454" y1="34.1294" x2="28.252" y2="34.3959" gradientUnits="userSpaceOnUse">
<stop stop-color="#D4AF37"/>
<stop offset="0.25" stop-color="#CF953C"/>
<stop offset="0.677083" stop-color="#D4AF37"/>
<stop offset="1" stop-color="#CF953C"/>
</linearGradient>
<linearGradient id="paint2_linear_2036_4515" x1="24.2532" y1="2.34814" x2="28.274" y2="3.28867" gradientUnits="userSpaceOnUse">
<stop stop-color="#D4AF37"/>
<stop offset="0.25" stop-color="#CF953C"/>
<stop offset="0.677083" stop-color="#D4AF37"/>
<stop offset="1" stop-color="#CF953C"/>
</linearGradient>
<linearGradient id="paint3_linear_2036_4515" x1="29.3777" y1="2.34814" x2="30.6436" y2="2.43699" gradientUnits="userSpaceOnUse">
<stop stop-color="#D4AF37"/>
<stop offset="0.25" stop-color="#CF953C"/>
<stop offset="0.677083" stop-color="#D4AF37"/>
<stop offset="1" stop-color="#CF953C"/>
</linearGradient>
<linearGradient id="paint4_linear_2036_4515" x1="21.9414" y1="2.34814" x2="23.2074" y2="2.43699" gradientUnits="userSpaceOnUse">
<stop stop-color="#D4AF37"/>
<stop offset="0.25" stop-color="#CF953C"/>
<stop offset="0.677083" stop-color="#D4AF37"/>
<stop offset="1" stop-color="#CF953C"/>
</linearGradient>
<linearGradient id="paint5_linear_2036_4515" x1="8.37994" y1="10.5674" x2="26.9843" y2="12.1793" gradientUnits="userSpaceOnUse">
<stop stop-color="#D4AF37"/>
<stop offset="0.25" stop-color="#CF953C"/>
<stop offset="0.677083" stop-color="#D4AF37"/>
<stop offset="1" stop-color="#CF953C"/>
</linearGradient>
</defs>
</svg>
