<svg width="40" height="40" viewBox="0 0 40 40" fill="none" xmlns="http://www.w3.org/2000/svg">
<path d="M29.1946 3.59905C29.1599 2.64934 28.7728 1.76194 28.0942 1.08794C26.6298 -0.366693 24.2518 -0.361996 22.7931 1.09819L22.7398 1.15158L22.6866 1.09819C21.228 -0.361918 18.8499 -0.366771 17.3854 1.08794C17.3537 1.1194 17.3234 1.15197 17.293 1.18438L17.2069 1.09819C15.7483 -0.361918 13.3702 -0.366771 11.9057 1.08794C11.2272 1.76194 10.84 2.64934 10.8053 3.59905H2.19092V40H37.809V3.59905H29.1946ZM29.0526 4.77327H35.8045L34.6302 5.9475H28.475C28.7374 5.59132 28.9317 5.19451 29.0526 4.77327ZM18.213 1.92101C18.7149 1.42235 19.3728 1.17326 20.0309 1.17326C20.6921 1.17326 21.3535 1.42502 21.8559 1.92805L22.7398 2.81287L23.6238 1.92805C24.6262 0.924483 26.2604 0.921509 27.2667 1.92101C27.7536 2.40471 28.0225 3.04834 28.0238 3.73346C28.0252 4.41858 27.7588 5.06331 27.2737 5.54881L22.7398 10.0875L18.2059 5.54889C17.7209 5.06339 17.4545 4.41866 17.4558 3.73354C17.4572 3.04842 17.726 2.40471 18.213 1.92101ZM12.7333 1.92101C13.7395 0.921274 15.3736 0.924405 16.3762 1.92805L16.6233 2.1755C16.401 2.65725 16.2826 3.18502 16.2816 3.73127C16.2797 4.73069 16.6681 5.67093 17.3753 6.37883L19.1701 8.17563L17.2601 10.0877L12.7262 5.54889C12.2412 5.06339 11.9748 4.41866 11.9761 3.73354C11.9774 3.04842 12.2463 2.40471 12.7333 1.92101ZM12.6377 7.12172L17.2601 11.7491L20 9.00635L22.7398 11.7491L27.3623 7.12172H34.2864V25.5363C34.0026 25.3223 33.6774 25.1576 33.3219 25.0573L29.3546 23.9383V22.379C30.4405 21.6386 31.1551 20.3919 31.1551 18.9814V17.2592C31.1551 14.9931 29.3114 13.1494 27.0453 13.1494C24.7792 13.1494 22.9355 14.9931 22.9355 17.2592V18.9814C22.9355 20.3919 23.6501 21.6386 24.736 22.379V23.9383L20.7687 25.0573C19.5531 25.4002 18.6917 26.4949 18.6334 27.7473C18.3897 27.5641 18.1148 27.4167 17.8151 27.3147L14.6377 26.2327V25.7527H14.6768C16.2955 25.7527 17.6124 24.4359 17.6124 22.8172V20.3122C17.6124 17.3123 15.1717 14.8716 12.1718 14.8716C9.17191 14.8716 6.73125 17.3123 6.73125 20.3122V22.8172C6.73125 24.4359 8.0481 25.7527 9.66681 25.7527H9.70595V26.2327L6.52866 27.3147C6.23025 27.4163 5.95642 27.5627 5.71359 27.7448V7.12172H12.6377ZM32.1728 31.3107V29.2363H30.9985V36.4773H23.0921V29.2363H21.9179V31.3107H19.8043V30.0935V27.8827C19.8043 27.0977 20.332 26.4005 21.0875 26.1875L25.1035 25.0549C25.5978 25.5958 26.2963 25.9094 27.0453 25.9094C27.7943 25.9094 28.4928 25.5958 28.9872 25.0549L33.0031 26.1875C33.7586 26.4006 34.2864 27.0977 34.2864 27.8827V31.3107H32.1728ZM34.2864 32.485V36.4773H32.1728V32.485H34.2864ZM21.9179 32.485V36.4773H19.8043V32.485H21.9179ZM28.1623 17.4549L29.8835 19.7312C29.5512 20.9878 28.4049 21.9169 27.0454 21.9169C25.4267 21.9169 24.1098 20.6001 24.1098 18.9814V17.4549H28.1623ZM24.2781 16.2807C24.682 15.1417 25.7696 14.3236 27.0453 14.3236C28.664 14.3236 29.9809 15.6405 29.9809 17.2592V17.9131L28.7464 16.2807H24.2781ZM28.1804 22.9305V24.1934C27.9046 24.5349 27.4911 24.7351 27.0453 24.7351C26.5995 24.7351 26.186 24.5349 25.9102 24.1934V22.9305C26.271 23.0343 26.6516 23.0912 27.0453 23.0912C27.4391 23.0912 27.8196 23.0343 28.1804 22.9305ZM16.9861 33.6592V32.0544H15.8119V36.4773H8.53172V32.0544H7.3575V33.6592H5.71359V30.0935C5.71359 29.3393 6.19322 28.6693 6.90715 28.4262L8.30314 27.9508L12.1718 31.1747L16.0405 27.9508L17.4365 28.4262C18.1503 28.6692 18.63 29.3393 18.63 30.0935V33.6592H16.9861ZM18.63 34.8334V36.4773H16.9861V34.8334H18.63ZM7.3575 34.8334V36.4773H5.71359V34.8334H7.3575ZM9.5908 24.5766C8.65478 24.5366 7.90547 23.7628 7.90547 22.8172V20.3122C7.90547 17.9597 9.8193 16.0458 12.1718 16.0458C14.5243 16.0458 16.4382 17.9597 16.4382 20.3122V22.8172C16.4382 23.7629 15.6889 24.5366 14.7528 24.5766C15.1233 24.0577 15.3422 23.4235 15.3422 22.7389V22.1909C15.3422 20.6586 14.0956 19.4119 12.5632 19.4119H9.00141V22.7389C9.00141 23.4236 9.22029 24.0578 9.5908 24.5766ZM10.1756 20.5862H12.5632C13.4481 20.5862 14.168 21.306 14.168 22.1909V22.7389C14.168 23.8396 13.2725 24.7351 12.1718 24.7351C11.0711 24.7351 10.1756 23.8396 10.1756 22.7389V20.5862ZM10.8802 27.0733V25.6331C11.275 25.81 11.7119 25.9093 12.1718 25.9093C12.6317 25.9093 13.0686 25.81 13.4635 25.6331V27.0733L14.7384 27.5074L12.1718 29.6462L9.60528 27.5074L10.8802 27.0733ZM10.9473 4.77327C11.0682 5.19451 11.2625 5.59132 11.5249 5.9475H5.3697L4.19547 4.77327H10.9473ZM3.36514 5.60361L4.53936 6.77783V30.0935V36.8211L3.36514 37.9953V5.60361ZM4.19547 38.8258L5.3697 37.6515H34.6302L35.8044 38.8258H4.19547ZM36.6348 37.9954L35.4606 36.8212V27.8827V6.77783L36.6348 5.60361V37.9954Z" fill="url(#paint0_linear_2036_4509)"/>
<defs>
<linearGradient id="paint0_linear_2036_4509" x1="1.71601" y1="-3.32693e-06" x2="40.1584" y2="2.40219" gradientUnits="userSpaceOnUse">
<stop stop-color="#D4AF37"/>
<stop offset="0.25" stop-color="#CF953C"/>
<stop offset="0.677083" stop-color="#D4AF37"/>
<stop offset="1" stop-color="#CF953C"/>
</linearGradient>
</defs>
</svg>
