<svg width="40" height="40" viewBox="0 0 40 40" fill="none" xmlns="http://www.w3.org/2000/svg">
<path d="M20.7828 25.0488H19.2172C18.2461 25.0488 17.456 25.839 17.456 26.8101V27.0058H14.1292V28.1799H17.456V29.3541H18.2387V31.2391C17.7568 31.7023 17.456 32.3526 17.456 33.0723V37.1819H22.544V33.0723C22.544 32.3526 22.2432 31.7024 21.7612 31.2391V29.3541H22.544V26.8101C22.544 25.839 21.7539 25.0488 20.7828 25.0488ZM18.6301 26.8101C18.6301 26.4863 18.8935 26.223 19.2172 26.223H20.7828C21.1065 26.223 21.3699 26.4863 21.3699 26.8101V28.1799H18.6301V26.8101ZM21.3699 36.0077H18.6301V33.0723C18.6301 32.317 19.2447 31.7024 20 31.7024C20.7553 31.7024 21.3699 32.317 21.3699 33.0723V36.0077ZM20.5871 30.5974C20.3985 30.5526 20.2021 30.5283 20 30.5283C19.7979 30.5283 19.6015 30.5527 19.4129 30.5974V29.3541H20.5871V30.5974Z" fill="url(#paint0_linear_2036_4527)"/>
<path d="M28.8062 7.91288V6.55264C29.4895 6.31029 29.9804 5.65769 29.9804 4.89237C29.9804 3.92125 29.1903 3.13112 28.2192 3.13112H22.544V2.54403C22.544 1.14121 21.4028 0 20 0C18.5972 0 17.4559 1.14121 17.4559 2.54403V3.13112H11.7808C10.8097 3.13112 10.0195 3.92125 10.0195 4.89237C10.0195 5.65769 10.5104 6.31029 11.1937 6.55264V7.91288C7.81219 8.56689 5.32288 11.5402 5.32288 15.0323V36.2818C5.32288 38.332 6.9909 40 9.04108 40H30.9589C33.0091 40 34.6771 38.332 34.6771 36.2818V15.0323C34.6771 11.5402 32.1878 8.56689 28.8062 7.91288ZM18.6301 2.54403C18.6301 1.78873 19.2447 1.17417 20 1.17417C20.7553 1.17417 21.3698 1.78873 21.3698 2.54403V3.13112H18.6301V2.54403ZM11.7808 4.30528H28.2192C28.5429 4.30528 28.8062 4.56861 28.8062 4.89237C28.8062 5.21613 28.5429 5.47945 28.2192 5.47945H11.7808C11.457 5.47945 11.1937 5.21613 11.1937 4.89237C11.1937 4.56861 11.457 4.30528 11.7808 4.30528ZM11.8508 8.99773L12.3679 8.93573V6.65362H27.6321V8.93573L28.1492 8.99773C31.017 9.34184 33.2219 11.6533 33.4776 14.4814H30.8767L30.9084 14.3017C31.0084 13.7353 30.8818 13.1639 30.5522 12.6928C30.2222 12.2214 29.7286 11.9071 29.1626 11.8077L25.9882 11.248V10.6849C25.9882 9.498 25.0225 8.53229 23.8356 8.53229H18.3561C17.342 8.53229 16.4899 9.23749 16.2631 10.1832C16.0187 10.1628 15.77 10.1848 15.526 10.2502L10.9895 11.4656C10.4339 11.614 9.96953 11.9701 9.68201 12.4683C9.3945 12.9663 9.31826 13.5464 9.46714 14.1018L9.56882 14.4814H6.52225C6.77806 11.6534 8.98291 9.34192 11.8508 8.99773ZM10.7844 14.4814L10.6012 13.7979C10.5336 13.5454 10.5682 13.2817 10.6988 13.0554C10.8295 12.8292 11.0403 12.6675 11.293 12.6L15.83 11.3844C16.0823 11.3168 16.3462 11.3513 16.5725 11.482C16.7987 11.6127 16.9604 11.8235 17.0279 12.0762L17.6729 14.4814H10.7844ZM18.8885 14.4814L18.1622 11.7726C18.0369 11.3036 17.7632 10.9 17.3813 10.6125C17.4187 10.1068 17.8411 9.70646 18.3561 9.70646H23.8356C24.3752 9.70646 24.8141 10.1454 24.8141 10.6849V11.0409L24.5373 10.992C23.3687 10.7855 22.2496 11.5688 22.0434 12.7379L21.7359 14.4814H18.8885ZM23.1997 12.942C23.2451 12.6845 23.388 12.4602 23.6021 12.3103C23.8161 12.1605 24.0759 12.1032 24.3333 12.1484L28.9593 12.9642C29.2163 13.0094 29.4404 13.1521 29.5903 13.3661C29.7402 13.5803 29.7976 13.8402 29.7522 14.0977L29.6844 14.4814H22.9281L23.1997 12.942ZM30.9589 38.8258H9.04108C7.63826 38.8258 6.49704 37.6846 6.49704 36.2818V15.6556H33.5029V36.2818C33.5029 37.6846 32.3617 38.8258 30.9589 38.8258Z" fill="url(#paint1_linear_2036_4527)"/>
<path d="M14.5205 18.3955H15.773V19.5697H14.5205V18.3955Z" fill="url(#paint2_linear_2036_4527)"/>
<path d="M9.04102 28.5713H10.2935V29.7455H9.04102V28.5713Z" fill="url(#paint3_linear_2036_4527)"/>
<path d="M27.045 26.2231H28.2975V27.3973H27.045V26.2231Z" fill="url(#paint4_linear_2036_4527)"/>
<path d="M30.1761 22.3091H31.4286V23.4833H30.1761V22.3091Z" fill="url(#paint5_linear_2036_4527)"/>
<path d="M14.1939 24.1924C14.9953 23.3849 14.9927 22.0735 14.1883 21.2692C13.7988 20.8798 13.2818 20.6655 12.7319 20.6655C12.7306 20.6655 12.7292 20.6655 12.7278 20.6655C12.2654 20.6665 11.8266 20.8188 11.4676 21.099C11.1087 20.8188 10.6701 20.6665 10.2076 20.6655C10.2062 20.6655 10.2049 20.6655 10.2034 20.6655C9.65364 20.6655 9.13645 20.8798 8.74702 21.2692C7.94256 22.0734 7.9399 23.3848 8.74138 24.1924L11.4676 26.9393L14.1939 24.1924ZM9.57724 22.0995C9.74491 21.9319 9.96722 21.8397 10.2035 21.8397H10.2053C10.4422 21.8402 10.6648 21.9333 10.8323 22.1021L11.4676 22.7421L12.103 22.102C12.2705 21.9334 12.4931 21.8402 12.73 21.8397H12.7318C12.9681 21.8397 13.1904 21.932 13.3581 22.0995C13.7064 22.4478 13.7075 23.0156 13.3605 23.3653L11.4676 25.2725L9.57473 23.3653C9.2278 23.0156 9.22882 22.4478 9.57724 22.0995Z" fill="url(#paint6_linear_2036_4527)"/>
<path d="M29.4292 29.5107C29.4277 29.5107 29.4262 29.5107 29.4247 29.5107C28.8926 29.5118 28.3892 29.6968 27.9844 30.0361C27.5796 29.6968 27.076 29.5118 26.544 29.5107C26.5425 29.5107 26.5411 29.5107 26.5395 29.5107C25.9318 29.5107 25.3607 29.7509 24.9311 30.1874C24.0497 31.0829 24.0468 32.5428 24.9249 33.4417L27.9844 36.5741L31.0439 33.4417C31.9219 32.5428 31.9191 31.0829 31.0376 30.1874C30.608 29.7509 30.037 29.5107 29.4292 29.5107ZM30.2039 32.6213L27.9844 34.8937L25.7649 32.6213C25.3304 32.1765 25.3319 31.4542 25.7679 31.0111C25.9751 30.8007 26.249 30.685 26.5396 30.685H26.5417C26.8332 30.6855 27.1076 30.8025 27.3145 31.0142L27.9844 31.7001L28.6543 31.0142C28.8612 30.8025 29.1355 30.6856 29.427 30.685H29.4291C29.7197 30.685 29.9938 30.8008 30.2008 31.0112C30.637 31.4541 30.6383 32.1765 30.2039 32.6213Z" fill="url(#paint7_linear_2036_4527)"/>
<path d="M13.8038 31.7808C13.8026 31.7808 13.8014 31.7808 13.8002 31.7808C13.4068 31.7815 13.0325 31.9056 12.7202 32.1349C12.4079 31.9055 12.0336 31.7815 11.64 31.7808C11.6389 31.7808 11.6378 31.7808 11.6365 31.7808C11.141 31.7808 10.6757 31.9765 10.3257 32.332C9.60896 33.0601 9.60661 34.2473 10.3206 34.9783L12.7202 37.4351L15.1199 34.9783C15.8337 34.2473 15.8314 33.0601 15.1147 32.332C14.7647 31.9765 14.2993 31.7808 13.8038 31.7808ZM14.2799 34.1579L12.7202 35.7547L11.1606 34.158C10.8902 33.8811 10.8911 33.4316 11.1625 33.1557C11.2899 33.0262 11.4582 32.955 11.6366 32.955H11.6378C11.8168 32.9553 11.9854 33.0273 12.1127 33.1577L12.7202 33.7797L13.3276 33.1577C13.455 33.0273 13.6236 32.9553 13.8025 32.955H13.8038C13.982 32.955 14.1505 33.0262 14.278 33.1558C14.5493 33.4315 14.5502 33.881 14.2799 34.1579Z" fill="url(#paint8_linear_2036_4527)"/>
<path d="M27.2157 17.7942C26.7466 17.3235 26.1237 17.0645 25.4611 17.0645C25.4594 17.0645 25.4578 17.0645 25.4562 17.0645C24.8543 17.0656 24.2856 17.2804 23.8357 17.673C23.3857 17.2803 22.8171 17.0655 22.2152 17.0645C22.2135 17.0645 22.212 17.0645 22.2103 17.0645C21.5478 17.0645 20.9248 17.3236 20.4557 17.7942C19.4877 18.7654 19.4846 20.3489 20.4488 21.3239L23.8358 24.7487L27.2227 21.3239C28.1868 20.3489 28.1837 18.7654 27.2157 17.7942ZM26.3876 20.4983L23.8356 23.0789L21.2836 20.4983C20.7713 19.9803 20.7729 19.1391 21.2872 18.623C21.5343 18.3751 21.8621 18.2386 22.2102 18.2386H22.2128C22.562 18.2393 22.8902 18.3772 23.137 18.6266L23.8356 19.333L24.5342 18.6266C24.781 18.3771 25.1093 18.2393 25.4585 18.2386H25.461C25.8092 18.2386 26.1369 18.3751 26.3841 18.6231C26.8983 19.1391 26.8999 19.9803 26.3876 20.4983Z" fill="url(#paint9_linear_2036_4527)"/>
<defs>
<linearGradient id="paint0_linear_2036_4527" x1="14.017" y1="25.0488" x2="23.113" y2="25.4915" gradientUnits="userSpaceOnUse">
<stop stop-color="#D4AF37"/>
<stop offset="0.25" stop-color="#CF953C"/>
<stop offset="0.677083" stop-color="#D4AF37"/>
<stop offset="1" stop-color="#CF953C"/>
</linearGradient>
<linearGradient id="paint1_linear_2036_4527" x1="4.93149" y1="-3.32693e-06" x2="36.6529" y2="1.63361" gradientUnits="userSpaceOnUse">
<stop stop-color="#D4AF37"/>
<stop offset="0.25" stop-color="#CF953C"/>
<stop offset="0.677083" stop-color="#D4AF37"/>
<stop offset="1" stop-color="#CF953C"/>
</linearGradient>
<linearGradient id="paint2_linear_2036_4527" x1="14.5038" y1="18.3955" x2="15.8533" y2="18.4965" gradientUnits="userSpaceOnUse">
<stop stop-color="#D4AF37"/>
<stop offset="0.25" stop-color="#CF953C"/>
<stop offset="0.677083" stop-color="#D4AF37"/>
<stop offset="1" stop-color="#CF953C"/>
</linearGradient>
<linearGradient id="paint3_linear_2036_4527" x1="9.02432" y1="28.5713" x2="10.3738" y2="28.6723" gradientUnits="userSpaceOnUse">
<stop stop-color="#D4AF37"/>
<stop offset="0.25" stop-color="#CF953C"/>
<stop offset="0.677083" stop-color="#D4AF37"/>
<stop offset="1" stop-color="#CF953C"/>
</linearGradient>
<linearGradient id="paint4_linear_2036_4527" x1="27.0283" y1="26.2231" x2="28.3778" y2="26.3242" gradientUnits="userSpaceOnUse">
<stop stop-color="#D4AF37"/>
<stop offset="0.25" stop-color="#CF953C"/>
<stop offset="0.677083" stop-color="#D4AF37"/>
<stop offset="1" stop-color="#CF953C"/>
</linearGradient>
<linearGradient id="paint5_linear_2036_4527" x1="30.1594" y1="22.3091" x2="31.5089" y2="22.4101" gradientUnits="userSpaceOnUse">
<stop stop-color="#D4AF37"/>
<stop offset="0.25" stop-color="#CF953C"/>
<stop offset="0.677083" stop-color="#D4AF37"/>
<stop offset="1" stop-color="#CF953C"/>
</linearGradient>
<linearGradient id="paint6_linear_2036_4527" x1="8.05328" y1="20.6655" x2="15.2204" y2="21.1988" gradientUnits="userSpaceOnUse">
<stop stop-color="#D4AF37"/>
<stop offset="0.25" stop-color="#CF953C"/>
<stop offset="0.677083" stop-color="#D4AF37"/>
<stop offset="1" stop-color="#CF953C"/>
</linearGradient>
<linearGradient id="paint7_linear_2036_4527" x1="24.1691" y1="29.5107" x2="32.1785" y2="30.1022" gradientUnits="userSpaceOnUse">
<stop stop-color="#D4AF37"/>
<stop offset="0.25" stop-color="#CF953C"/>
<stop offset="0.677083" stop-color="#D4AF37"/>
<stop offset="1" stop-color="#CF953C"/>
</linearGradient>
<linearGradient id="paint8_linear_2036_4527" x1="9.70839" y1="31.7808" x2="16.032" y2="32.2412" gradientUnits="userSpaceOnUse">
<stop stop-color="#D4AF37"/>
<stop offset="0.25" stop-color="#CF953C"/>
<stop offset="0.677083" stop-color="#D4AF37"/>
<stop offset="1" stop-color="#CF953C"/>
</linearGradient>
<linearGradient id="paint9_linear_2036_4527" x1="19.6181" y1="17.0645" x2="28.4705" y2="17.7287" gradientUnits="userSpaceOnUse">
<stop stop-color="#D4AF37"/>
<stop offset="0.25" stop-color="#CF953C"/>
<stop offset="0.677083" stop-color="#D4AF37"/>
<stop offset="1" stop-color="#CF953C"/>
</linearGradient>
</defs>
</svg>
