<svg width="40" height="40" viewBox="0 0 40 40" fill="none" xmlns="http://www.w3.org/2000/svg">
<g clip-path="url(#clip0_2036_4542)">
<path d="M35.4599 17.1566V0H4.54012V17.1566L0 20.3198V40H40V20.3198L35.4599 17.1566ZM35.4599 18.5876L38.1858 20.4867L35.4599 21.5826V18.5876ZM5.71429 1.17417H34.2857V22.0546L23.9674 26.2027L20 23.0031L16.0326 26.2027L5.71429 22.0546V1.17417ZM4.54012 18.5876V21.5826L1.81425 20.4868L4.54012 18.5876ZM1.17417 21.495L14.9854 27.0473L1.17417 38.1853V21.495ZM2.25025 38.8258L20 24.5115L37.7497 38.8258H2.25025ZM38.8258 38.1853L25.0146 27.0472L38.8258 21.495V38.1853Z" fill="url(#paint0_linear_2036_4542)"/>
<path d="M20 21.408C20.9148 22.1659 22.088 22.6221 23.366 22.6221C26.2795 22.6221 28.6498 20.2518 28.6498 17.3383C28.6498 14.8863 26.9707 12.8194 24.702 12.2261L26.2104 11.1087L25.0748 8.61035H21.6572L20.5216 11.1087L22.03 12.2261C21.2745 12.4237 20.5845 12.7844 20 13.2687C19.4156 12.7844 18.7255 12.4237 17.9701 12.2261L19.4785 11.1087L18.3429 8.61035H14.9253L13.7897 11.1087L15.2981 12.2261C13.0294 12.8194 11.3503 14.8863 11.3503 17.3383C11.3503 20.2518 13.7206 22.6221 16.6341 22.6221C17.9121 22.6221 19.0853 22.1659 20 21.408ZM21.9834 10.7304L22.4134 9.78452H24.3187L24.7487 10.7304L23.366 11.7545L21.9834 10.7304ZM20.8183 14.1174C21.5193 13.5617 22.4042 13.2287 23.366 13.2287C25.6321 13.2287 27.4756 15.0723 27.4756 17.3383C27.4756 19.6043 25.6321 21.4479 23.366 21.4479C22.4042 21.4479 21.5193 21.1149 20.8183 20.5593C21.5069 19.667 21.9179 18.55 21.9179 17.3383C21.9179 16.1267 21.5069 15.0096 20.8183 14.1174ZM20 14.9848C20.468 15.652 20.7437 16.4633 20.7437 17.3383C20.7437 18.2133 20.468 19.0246 20 19.6918C19.5321 19.0247 19.2564 18.2133 19.2564 17.3383C19.2564 16.4633 19.5321 15.6521 20 14.9848ZM15.2515 10.7304L15.6815 9.78452H17.5868L18.0168 10.7304L16.6341 11.7545L15.2515 10.7304ZM12.5245 17.3383C12.5245 15.0723 14.368 13.2287 16.6341 13.2287C17.5959 13.2287 18.4808 13.5617 19.1818 14.1174C18.4932 15.0096 18.0822 16.1267 18.0822 17.3383C18.0822 18.55 18.4932 19.667 19.1818 20.5593C18.4808 21.1149 17.5959 21.4479 16.6341 21.4479C14.368 21.4479 12.5245 19.6043 12.5245 17.3383Z" fill="url(#paint1_linear_2036_4542)"/>
<path d="M20 8.60277L22.7255 5.86673C23.5282 5.06086 23.5256 3.75221 22.7198 2.94954C21.9769 2.20958 20.8071 2.15385 19.9999 2.78078C19.1928 2.15401 18.0229 2.20966 17.2801 2.94954C16.4743 3.75221 16.4717 5.06086 17.2745 5.86673L20 8.60277ZM18.1088 3.78148C18.282 3.60904 18.5089 3.52285 18.7359 3.52285C18.964 3.52285 19.1921 3.6099 19.3654 3.78391L20 4.42109L20.6346 3.78391C20.9804 3.43675 21.5441 3.43573 21.8912 3.78148C22.2384 4.12724 22.2394 4.69099 21.8936 5.03816L20 6.93906L18.1065 5.03808C17.7606 4.69099 17.7617 4.12724 18.1088 3.78148Z" fill="url(#paint2_linear_2036_4542)"/>
</g>
<defs>
<linearGradient id="paint0_linear_2036_4542" x1="-0.533333" y1="-3.32693e-06" x2="42.5946" y2="3.02652" gradientUnits="userSpaceOnUse">
<stop stop-color="#D4AF37"/>
<stop offset="0.25" stop-color="#CF953C"/>
<stop offset="0.677083" stop-color="#D4AF37"/>
<stop offset="1" stop-color="#CF953C"/>
</linearGradient>
<linearGradient id="paint1_linear_2036_4542" x1="11.1197" y1="8.61035" x2="29.7241" y2="10.2223" gradientUnits="userSpaceOnUse">
<stop stop-color="#D4AF37"/>
<stop offset="0.25" stop-color="#CF953C"/>
<stop offset="0.677083" stop-color="#D4AF37"/>
<stop offset="1" stop-color="#CF953C"/>
</linearGradient>
<linearGradient id="paint2_linear_2036_4542" x1="16.5854" y1="2.34912" x2="23.7527" y2="2.88411" gradientUnits="userSpaceOnUse">
<stop stop-color="#D4AF37"/>
<stop offset="0.25" stop-color="#CF953C"/>
<stop offset="0.677083" stop-color="#D4AF37"/>
<stop offset="1" stop-color="#CF953C"/>
</linearGradient>
<clipPath id="clip0_2036_4542">
<rect width="40" height="40" fill="white"/>
</clipPath>
</defs>
</svg>
