<svg width="105" height="86" viewBox="0 0 105 86" fill="none" xmlns="http://www.w3.org/2000/svg">
<g opacity="0.5" clip-path="url(#clip0_2036_4502)">
<path fill-rule="evenodd" clip-rule="evenodd" d="M104.54 13.4317C88.8818 20.8937 81.0531 29.6616 81.0531 39.7354C87.7269 40.4816 93.2455 43.1243 97.6091 47.6638C101.973 52.2032 104.154 57.4577 104.154 63.4273C104.154 69.7701 102.037 75.1178 97.8016 79.4707C93.5663 83.8236 88.2403 86 81.8232 86C74.636 86 68.4116 83.1707 63.1496 77.5119C57.8876 71.8532 55.2566 64.982 55.2566 56.898C55.2566 32.6463 69.2456 13.6805 97.2241 0L104.54 13.4317ZM49.2829 13.4317C33.4969 20.8937 25.604 29.6616 25.604 39.7354C32.4061 40.4816 37.9889 43.1243 42.3525 47.6638C46.7161 52.2032 48.8979 57.4577 48.8979 63.4273C48.8979 69.7701 46.7482 75.1178 42.4488 79.4707C38.1493 83.8236 32.7911 86 26.3741 86C19.1869 86 12.9945 83.1707 7.79671 77.5119C2.59888 71.8532 0 64.982 0 56.898C0 32.6463 13.9249 13.6805 41.775 0L49.2829 13.4317Z" fill="url(#paint0_linear_2036_4502)"/>
</g>
<defs>
<linearGradient id="paint0_linear_2036_4502" x1="-1.39386" y1="-7.1529e-06" x2="111.057" y2="9.59248" gradientUnits="userSpaceOnUse">
<stop stop-color="#D4AF37"/>
<stop offset="0.25" stop-color="#CF953C"/>
<stop offset="0.677083" stop-color="#D4AF37"/>
<stop offset="1" stop-color="#CF953C"/>
</linearGradient>
<clipPath id="clip0_2036_4502">
<rect width="105" height="86" fill="white"/>
</clipPath>
</defs>
</svg>
