<svg width="18" height="18" fill="none" xmlns="http://www.w3.org/2000/svg"><path d="M13.5 2.25h-9c-1.275 0-2.25.975-2.25 2.25v9c0 1.275.975 2.25 2.25 2.25h9c1.275 0 2.25-.975 2.25-2.25v-9c0-1.275-.975-2.25-2.25-2.25ZM9 6.75c1.275 0 2.25.975 2.25 2.25s-.975 2.25-2.25 2.25S6.75 10.275 6.75 9 7.725 6.75 9 6.75Zm2.85-1.5c0-.525.45-.9.9-.9s.9.45.9.9-.375.9-.9.9-.9-.375-.9-.9Zm1.65 9h-9c-.45 0-.75-.3-.75-.75V9h1.5c0 2.1 1.65 3.75 3.75 3.75S12.75 11.1 12.75 9h1.5v4.5c0 .45-.3.75-.75.75Z" fill="#7595C5"/></svg>