<svg width="40" height="40" viewBox="0 0 40 40" fill="none" xmlns="http://www.w3.org/2000/svg">
<g clip-path="url(#clip0_2043_2899)">
<path d="M39.6159 28.7549C38.3424 26.9721 35.9317 26.4188 34.0084 27.468L27.4795 31.0292C27.2112 29.9601 26.2424 29.166 25.0913 29.166H25.0816L36.6757 17.5273C40.6715 13.5158 40.6589 7.00087 36.6475 3.0044C34.709 1.07331 32.1361 0.0108032 29.4005 0.0108032C29.3938 0.0108032 29.3869 0.0108032 29.3801 0.0108032C26.637 0.0160403 24.0602 1.08926 22.1245 3.03254L21.1048 4.0562L20.085 3.03254C18.1493 1.08926 15.5726 0.0160403 12.8294 0.0108032C12.8226 0.0108032 12.8159 0.0108032 12.809 0.0108032C10.0736 0.0108032 7.50057 1.07347 5.56205 3.0044C1.55073 7.00087 1.53807 13.5158 5.53391 17.5273L13.2347 25.2576C10.2601 25.345 7.39973 26.6822 6.74032 27.0104H4.88537V25.493H0V26.6655H3.71288V35.6545H0V36.827H4.88537V35.3044H8.3124L22.9336 39.9893L40.0001 29.293L39.6159 28.7549ZM6.3645 16.6999C2.82492 13.1463 2.83617 7.3752 6.38952 3.83507C8.10674 2.12457 10.3857 1.18329 12.809 1.18329H12.8271C15.257 1.18798 17.5396 2.13864 19.2543 3.86001L21.1048 5.71754L22.9552 3.86001C24.6699 2.13864 26.9525 1.1879 29.3824 1.18329H29.4005C31.8236 1.18329 34.1028 2.12464 35.8199 3.83507C39.3733 7.3752 39.3845 13.1463 35.8449 16.6999L23.4267 29.166H19.7779C19.4646 28.5331 18.8113 27.3276 18.1702 26.8538C17.2414 26.0143 16.1447 25.5647 15.0028 25.3712L6.3645 16.6999ZM22.7725 38.7064L8.49562 34.1319H4.88537V28.1828L7.025 28.1827L7.15257 28.116C7.22042 28.0806 13.9767 24.6061 17.4047 27.7424L17.4331 27.7685L17.4647 27.7906C17.8689 28.0728 18.5331 29.2506 18.8756 29.9967L19.0325 30.3385H25.0913C25.8024 30.3385 26.381 30.9171 26.381 31.6282C26.381 32.3394 25.8024 32.9179 25.0913 32.9179H17.1183V34.0904H25.0913C26.1828 34.0904 27.1103 33.3762 27.4321 32.3906L34.5698 28.4974C35.7976 27.8279 37.2973 28.0527 38.2756 28.9901L22.7725 38.7064Z" fill="url(#paint0_linear_2043_2899)"/>
<path d="M21.1049 20.8413C22.0183 21.5981 23.1899 22.0536 24.466 22.0536C27.3753 22.0536 29.7422 19.6868 29.7422 16.7774C29.7422 14.3289 28.0655 12.265 25.8001 11.6725L27.3063 10.5568L26.1724 8.06195H22.7596L21.6257 10.5568L23.1319 11.6725C22.3775 11.8698 21.6884 12.2301 21.1049 12.7136C20.5213 12.2301 19.8322 11.8698 19.0779 11.6725L20.584 10.5568L19.4501 8.06195H16.0374L14.9034 10.5568L16.4096 11.6725C14.1442 12.265 12.4675 14.3289 12.4675 16.7774C12.4675 19.6868 14.8344 22.0536 17.7437 22.0536C19.0199 22.0536 20.1914 21.5981 21.1049 20.8413ZM23.0854 10.1789L23.5147 9.23444H25.4174L25.8467 10.1789L24.466 11.2016L23.0854 10.1789ZM21.9219 13.561C22.6218 13.0063 23.5056 12.6737 24.466 12.6737C26.7288 12.6737 28.5697 14.5146 28.5697 16.7774C28.5697 19.0401 26.7288 20.8811 24.466 20.8811C23.5056 20.8811 22.6219 20.5486 21.9219 19.9937C22.6095 19.1027 23.0199 17.9873 23.0199 16.7774C23.0199 15.5674 22.6096 14.4521 21.9219 13.561ZM21.1049 14.4273C21.5721 15.0935 21.8474 15.9037 21.8474 16.7774C21.8474 17.6512 21.5721 18.4613 21.1049 19.1276C20.6376 18.4614 20.3623 17.6512 20.3623 16.7774C20.3623 15.9037 20.6376 15.0935 21.1049 14.4273ZM16.3631 10.1789L16.7924 9.23444H18.6951L19.1245 10.1789L17.7437 11.2016L16.3631 10.1789ZM13.64 16.7774C13.64 14.5147 15.4809 12.6737 17.7437 12.6737C18.7042 12.6737 19.5878 13.0063 20.2878 13.5611C19.6002 14.4522 19.1898 15.5675 19.1898 16.7774C19.1898 17.9874 19.6002 19.1028 20.2878 19.9938C19.5879 20.5486 18.7042 20.8812 17.7437 20.8812C15.4809 20.8812 13.64 19.0402 13.64 16.7774Z" fill="url(#paint1_linear_2043_2899)"/>
</g>
<defs>
<linearGradient id="paint0_linear_2043_2899" x1="-0.533334" y1="0.0107999" x2="42.5945" y2="3.03895" gradientUnits="userSpaceOnUse">
<stop stop-color="#D4AF37"/>
<stop offset="0.25" stop-color="#CF953C"/>
<stop offset="0.677083" stop-color="#D4AF37"/>
<stop offset="1" stop-color="#CF953C"/>
</linearGradient>
<linearGradient id="paint1_linear_2043_2899" x1="12.2372" y1="8.06195" x2="30.815" y2="9.67155" gradientUnits="userSpaceOnUse">
<stop stop-color="#D4AF37"/>
<stop offset="0.25" stop-color="#CF953C"/>
<stop offset="0.677083" stop-color="#D4AF37"/>
<stop offset="1" stop-color="#CF953C"/>
</linearGradient>
<clipPath id="clip0_2043_2899">
<rect width="40" height="40" fill="white"/>
</clipPath>
</defs>
</svg>
