<svg width="40" height="40" viewBox="0 0 40 40" fill="none" xmlns="http://www.w3.org/2000/svg">
<path d="M9.17371 15.0931L4.41602 23.3028L20 40L35.5841 23.3028L30.8264 15.0931H9.17371ZM29.4189 16.2661L25.6385 22.1966L21.1204 16.2661H29.4189ZM24.4971 22.6341H15.5794L20.0037 16.736L24.4971 22.6341ZM18.8898 16.2661L14.441 22.1968L10.5917 16.2661H18.8898ZM9.54008 16.8005L13.3263 22.634H6.15931L9.54008 16.8005ZM6.4912 23.8071H13.9906L18.5185 36.6935L6.4912 23.8071ZM15.2341 23.8071H24.8493L20.0045 37.3833L15.2341 23.8071ZM21.505 36.6684L26.0947 23.8071H33.5089L21.505 36.6684ZM26.7508 22.6341L30.4645 16.8082L33.8408 22.6341H26.7508Z" fill="url(#paint0_linear_2043_2871)"/>
<path d="M31.3393 12.4596L37.0287 6.74802C37.7745 5.99939 38.1841 5.00512 38.182 3.94837C38.18 2.8917 37.7666 1.89899 37.0178 1.15325C36.2711 0.409391 35.2799 0 34.2262 0C34.2236 0 34.2208 0 34.2182 0C33.1614 0.00203327 32.1688 0.41549 31.4231 1.16412L31.3393 1.24819L31.2556 1.16412C29.7159 -0.381472 27.2062 -0.386164 25.6608 1.15325C24.9122 1.89899 24.4987 2.8917 24.4966 3.94837C24.4946 5.00512 24.9041 5.99939 25.6499 6.74802L31.3393 12.4596ZM26.4886 1.98439C27.0309 1.44417 27.7416 1.17437 28.4525 1.17437C29.167 1.17437 29.8815 1.44706 30.4244 1.99205L31.3392 2.91054L32.2541 1.99205C32.7787 1.46544 33.4771 1.17452 34.2205 1.17312H34.226C34.9673 1.17312 35.6646 1.46114 36.1899 1.98447C36.7166 2.50913 37.0074 3.20748 37.0089 3.95087C37.0104 4.69427 36.7222 5.39371 36.1976 5.92041L31.3392 10.7977L26.4809 5.92041C25.9562 5.39371 25.6681 4.69427 25.6695 3.95087C25.671 3.20748 25.9619 2.50897 26.4886 1.98439Z" fill="url(#paint1_linear_2043_2871)"/>
<path d="M9.36452 12.97L14.065 8.25116C14.6918 7.6221 15.0358 6.78658 15.0342 5.89859C15.0326 5.0106 14.685 4.17649 14.056 3.54985C12.7605 2.25943 10.6589 2.26053 9.36452 3.54907C8.73898 2.92619 7.90893 2.58241 7.02556 2.58069C7.02337 2.58069 7.02118 2.58069 7.01891 2.58069C6.13342 2.58069 5.30049 2.9247 4.67307 3.54985C4.044 4.17649 3.69655 5.0106 3.69483 5.89859C3.69319 6.7865 4.03728 7.62202 4.66399 8.25116L9.36452 12.97ZM5.50092 4.38091C5.90695 3.97637 6.44592 3.75373 7.01899 3.75373H7.02337C7.598 3.75482 8.13783 3.97965 8.54331 4.3867L9.3646 5.21127L10.1858 4.38678C11.023 3.54633 12.3878 3.54368 13.2282 4.38091C13.6353 4.78647 13.8601 5.32623 13.8612 5.90086C13.8624 6.47549 13.6396 7.01618 13.2341 7.42331L9.3646 11.3078L5.49513 7.42331C5.08957 7.01618 4.86685 6.47549 4.86795 5.90086C4.86896 5.32623 5.09372 4.78639 5.50092 4.38091Z" fill="url(#paint2_linear_2043_2871)"/>
<path d="M20.3127 13.8067L23.6948 10.4114C24.6607 9.44178 24.6576 7.86725 23.688 6.90153C23.2195 6.43481 22.5977 6.178 21.9365 6.178C21.9348 6.178 21.9332 6.178 21.9315 6.178C21.3303 6.17917 20.7622 6.39258 20.3127 6.78258C19.8632 6.39251 19.2949 6.17909 18.6938 6.17792C18.6922 6.17792 18.6905 6.17792 18.6889 6.17792C18.0278 6.17792 17.406 6.43481 16.9374 6.90145C15.9679 7.86725 15.9648 9.4417 16.9306 10.4113L20.3127 13.8067ZM17.7652 7.73258C18.0123 7.48648 18.3402 7.35103 18.689 7.35103H18.6915C19.0412 7.35174 19.3695 7.48851 19.6163 7.73626L20.3127 8.43531L21.0091 7.73626C21.2558 7.48859 21.5842 7.35174 21.9338 7.35111H21.9364C22.2851 7.35111 22.613 7.48656 22.8601 7.73266C23.3714 8.242 23.3731 9.07235 22.8637 9.58364L20.3127 12.1446L17.7616 9.58364C17.2523 9.07227 17.2539 8.24192 17.7652 7.73258Z" fill="url(#paint3_linear_2043_2871)"/>
<path d="M3.77295 13.2162H4.94599V14.3893H3.77295V13.2162Z" fill="url(#paint4_linear_2043_2871)"/>
<path d="M3.77295 17.1263H4.94599V18.2994H3.77295V17.1263Z" fill="url(#paint5_linear_2043_2871)"/>
<path d="M5.72803 15.1713H6.90107V16.3444H5.72803V15.1713Z" fill="url(#paint6_linear_2043_2871)"/>
<path d="M1.81787 15.1713H2.99091V16.3444H1.81787V15.1713Z" fill="url(#paint7_linear_2043_2871)"/>
<path d="M35.054 10.7919H36.227V11.965H35.054V10.7919Z" fill="url(#paint8_linear_2043_2871)"/>
<path d="M35.054 14.7021H36.227V15.8751H35.054V14.7021Z" fill="url(#paint9_linear_2043_2871)"/>
<path d="M37.009 12.747H38.1821V13.92H37.009V12.747Z" fill="url(#paint10_linear_2043_2871)"/>
<path d="M33.0989 12.747H34.2719V13.92H33.0989V12.747Z" fill="url(#paint11_linear_2043_2871)"/>
<defs>
<linearGradient id="paint0_linear_2043_2871" x1="4.00044" y1="15.0931" x2="37.5128" y2="18.036" gradientUnits="userSpaceOnUse">
<stop stop-color="#D4AF37"/>
<stop offset="0.25" stop-color="#CF953C"/>
<stop offset="0.677083" stop-color="#D4AF37"/>
<stop offset="1" stop-color="#CF953C"/>
</linearGradient>
<linearGradient id="paint1_linear_2043_2871" x1="24.3141" y1="-1.03631e-06" x2="39.0549" y2="1.13621" gradientUnits="userSpaceOnUse">
<stop stop-color="#D4AF37"/>
<stop offset="0.25" stop-color="#CF953C"/>
<stop offset="0.677083" stop-color="#D4AF37"/>
<stop offset="1" stop-color="#CF953C"/>
</linearGradient>
<linearGradient id="paint2_linear_2043_2871" x1="3.54363" y1="2.58069" x2="15.7583" y2="3.51625" gradientUnits="userSpaceOnUse">
<stop stop-color="#D4AF37"/>
<stop offset="0.25" stop-color="#CF953C"/>
<stop offset="0.677083" stop-color="#D4AF37"/>
<stop offset="1" stop-color="#CF953C"/>
</linearGradient>
<linearGradient id="paint3_linear_2043_2871" x1="16.0988" y1="6.17792" x2="24.9428" y2="6.84575" gradientUnits="userSpaceOnUse">
<stop stop-color="#D4AF37"/>
<stop offset="0.25" stop-color="#CF953C"/>
<stop offset="0.677083" stop-color="#D4AF37"/>
<stop offset="1" stop-color="#CF953C"/>
</linearGradient>
<linearGradient id="paint4_linear_2043_2871" x1="3.75731" y1="13.2162" x2="5.02208" y2="13.305" gradientUnits="userSpaceOnUse">
<stop stop-color="#D4AF37"/>
<stop offset="0.25" stop-color="#CF953C"/>
<stop offset="0.677083" stop-color="#D4AF37"/>
<stop offset="1" stop-color="#CF953C"/>
</linearGradient>
<linearGradient id="paint5_linear_2043_2871" x1="3.75731" y1="17.1263" x2="5.02208" y2="17.2151" gradientUnits="userSpaceOnUse">
<stop stop-color="#D4AF37"/>
<stop offset="0.25" stop-color="#CF953C"/>
<stop offset="0.677083" stop-color="#D4AF37"/>
<stop offset="1" stop-color="#CF953C"/>
</linearGradient>
<linearGradient id="paint6_linear_2043_2871" x1="5.71239" y1="15.1713" x2="6.97716" y2="15.2601" gradientUnits="userSpaceOnUse">
<stop stop-color="#D4AF37"/>
<stop offset="0.25" stop-color="#CF953C"/>
<stop offset="0.677083" stop-color="#D4AF37"/>
<stop offset="1" stop-color="#CF953C"/>
</linearGradient>
<linearGradient id="paint7_linear_2043_2871" x1="1.80223" y1="15.1713" x2="3.067" y2="15.2601" gradientUnits="userSpaceOnUse">
<stop stop-color="#D4AF37"/>
<stop offset="0.25" stop-color="#CF953C"/>
<stop offset="0.677083" stop-color="#D4AF37"/>
<stop offset="1" stop-color="#CF953C"/>
</linearGradient>
<linearGradient id="paint8_linear_2043_2871" x1="35.0383" y1="10.7919" x2="36.3031" y2="10.8807" gradientUnits="userSpaceOnUse">
<stop stop-color="#D4AF37"/>
<stop offset="0.25" stop-color="#CF953C"/>
<stop offset="0.677083" stop-color="#D4AF37"/>
<stop offset="1" stop-color="#CF953C"/>
</linearGradient>
<linearGradient id="paint9_linear_2043_2871" x1="35.0383" y1="14.7021" x2="36.3031" y2="14.7908" gradientUnits="userSpaceOnUse">
<stop stop-color="#D4AF37"/>
<stop offset="0.25" stop-color="#CF953C"/>
<stop offset="0.677083" stop-color="#D4AF37"/>
<stop offset="1" stop-color="#CF953C"/>
</linearGradient>
<linearGradient id="paint10_linear_2043_2871" x1="36.9934" y1="12.747" x2="38.2582" y2="12.8358" gradientUnits="userSpaceOnUse">
<stop stop-color="#D4AF37"/>
<stop offset="0.25" stop-color="#CF953C"/>
<stop offset="0.677083" stop-color="#D4AF37"/>
<stop offset="1" stop-color="#CF953C"/>
</linearGradient>
<linearGradient id="paint11_linear_2043_2871" x1="33.0832" y1="12.747" x2="34.348" y2="12.8358" gradientUnits="userSpaceOnUse">
<stop stop-color="#D4AF37"/>
<stop offset="0.25" stop-color="#CF953C"/>
<stop offset="0.677083" stop-color="#D4AF37"/>
<stop offset="1" stop-color="#CF953C"/>
</linearGradient>
</defs>
</svg>
