<svg width="40" height="40" viewBox="0 0 40 40" fill="none" xmlns="http://www.w3.org/2000/svg">
<path d="M33.9043 7.57575C32.1637 5.84171 29.8537 4.88757 27.3973 4.88757C27.3913 4.88757 27.385 4.88757 27.379 4.88757C24.9159 4.89234 22.6022 5.85594 20.864 7.60093L20 8.46826L19.1359 7.60093C17.3977 5.85602 15.0839 4.89234 12.6209 4.88757C12.6147 4.88757 12.6087 4.88757 12.6025 4.88757C10.1464 4.88757 7.83606 5.84186 6.09553 7.57575C4.35054 9.31401 3.38687 11.6277 3.3821 14.0907C3.37725 16.5537 4.33193 18.8712 6.07019 20.6161L13.5482 28.1233V33.9394C13.5482 35.5063 14.7835 36.7901 16.3313 36.8682C16.6118 38.6405 18.1499 40 19.9998 40C21.8497 40 23.3878 38.6405 23.6683 36.8682C25.2162 36.7901 26.4514 35.5063 26.4514 33.9394V28.1232L33.9295 20.6161C35.6678 18.8711 36.6224 16.5537 36.6176 14.0906C36.6129 11.6276 35.6493 9.31393 33.9043 7.57575ZM20 38.827C18.8004 38.827 17.793 37.9914 17.5275 36.8719H22.4725C22.2069 37.9914 21.1995 38.827 20 38.827ZM23.519 35.6989H16.4809C15.5768 35.6989 14.8301 35.0134 14.7325 34.1349H25.2675C25.1698 35.0134 24.4231 35.6989 23.519 35.6989ZM25.2786 32.9619H14.7214V31.3978H25.2786V32.9619ZM25.2786 30.2248H14.7214V28.6608H25.2786V30.2248ZM16.6764 20.4496H15.3079C14.5533 20.4496 13.9394 19.8357 13.9394 19.0811C13.9394 18.3266 14.5533 17.7126 15.3079 17.7126C16.0625 17.7126 16.6764 18.3266 16.6764 19.0811V20.4496ZM17.8494 27.4878V21.6227H22.1505V27.4878H17.8494ZM33.0986 19.7882L25.4289 27.4878H23.3235V21.6227H24.692C26.0935 21.6227 27.2336 20.4825 27.2336 19.0811C27.2336 17.6798 26.0935 16.5396 24.692 16.5396C23.2906 16.5396 22.1505 17.6798 22.1505 19.0811V20.4496H17.8494V19.0811C17.8494 17.6798 16.7093 16.5396 15.3079 16.5396C13.9065 16.5396 12.7663 17.6798 12.7663 19.0811C12.7663 20.4825 13.9065 21.6227 15.3079 21.6227H16.6764V27.4878H14.5711L6.90139 19.7882C5.38429 18.2652 4.55105 16.2426 4.55528 14.0929C4.5595 11.9432 5.40055 9.92382 6.9236 8.40671C8.44259 6.89336 10.4587 6.06059 12.6026 6.06059H12.6186C14.7684 6.06474 16.7878 6.90579 18.3049 8.42884L20 10.1305L21.6951 8.42884C23.2121 6.90587 25.2315 6.06482 27.3812 6.06067H27.3973C29.541 6.06067 31.5573 6.89352 33.0765 8.40679C34.5995 9.9239 35.4405 11.9433 35.4447 14.093C35.4489 16.2426 34.6156 18.2652 33.0986 19.7882ZM23.3235 20.4496V19.0811C23.3235 18.3266 23.9375 17.7126 24.692 17.7126C25.4466 17.7126 26.0606 18.3266 26.0606 19.0811C26.0606 19.8357 25.4466 20.4496 24.692 20.4496H23.3235Z" fill="url(#paint0_linear_2043_2889)"/>
<path d="M19.4136 0H20.5866V3.91007H19.4136V0Z" fill="url(#paint1_linear_2043_2889)"/>
<path d="M14.772 1.41461L15.8347 0.918424L17.4002 4.27135L16.3374 4.76754L14.772 1.41461Z" fill="url(#paint2_linear_2043_2889)"/>
<path d="M22.6042 4.28687L24.1697 0.933941L25.2324 1.4301L23.6669 4.78302L22.6042 4.28687Z" fill="url(#paint3_linear_2043_2889)"/>
<defs>
<linearGradient id="paint0_linear_2043_2889" x1="2.93894" y1="4.88757" x2="38.7917" y2="7.26907" gradientUnits="userSpaceOnUse">
<stop stop-color="#D4AF37"/>
<stop offset="0.25" stop-color="#CF953C"/>
<stop offset="0.677083" stop-color="#D4AF37"/>
<stop offset="1" stop-color="#CF953C"/>
</linearGradient>
<linearGradient id="paint1_linear_2043_2889" x1="19.3979" y1="-3.25213e-07" x2="20.6683" y2="0.0267453" gradientUnits="userSpaceOnUse">
<stop stop-color="#D4AF37"/>
<stop offset="0.25" stop-color="#CF953C"/>
<stop offset="0.677083" stop-color="#D4AF37"/>
<stop offset="1" stop-color="#CF953C"/>
</linearGradient>
<linearGradient id="paint2_linear_2043_2889" x1="14.7578" y1="1.42123" x2="15.9207" y2="0.90947" gradientUnits="userSpaceOnUse">
<stop stop-color="#D4AF37"/>
<stop offset="0.25" stop-color="#CF953C"/>
<stop offset="0.677083" stop-color="#D4AF37"/>
<stop offset="1" stop-color="#CF953C"/>
</linearGradient>
<linearGradient id="paint3_linear_2043_2889" x1="22.5834" y1="4.33157" x2="24.9671" y2="1.22643" gradientUnits="userSpaceOnUse">
<stop stop-color="#D4AF37"/>
<stop offset="0.25" stop-color="#CF953C"/>
<stop offset="0.677083" stop-color="#D4AF37"/>
<stop offset="1" stop-color="#CF953C"/>
</linearGradient>
</defs>
</svg>
