<svg width="40" height="40" viewBox="0 0 40 40" fill="none" xmlns="http://www.w3.org/2000/svg">
<g clip-path="url(#clip0_2043_2908)">
<path d="M26.9511 26.3338C25.8067 25.1893 23.9444 25.1893 22.8 26.3338L21.1395 27.9942C18.6945 30.4394 17.59 30.2675 16.7608 29.7174C15.7781 29.0656 10.9355 24.223 10.2837 23.2403C9.73378 22.4111 9.56188 21.3067 12.007 18.8616L13.6674 17.2012C14.8119 16.0567 14.8119 14.1945 13.6674 13.05L9.23955 8.62217C8.09509 7.47771 6.23285 7.47763 5.08839 8.62217L3.42795 10.2826C1.64296 12.0676 0.580458 13.8276 0.179534 15.6632C-0.189376 17.3526 0.0128866 19.063 0.797985 20.8921C2.17844 24.1082 5.18099 27.2566 8.96285 31.0384C12.7447 34.8202 15.8931 37.8228 19.1092 39.2033C20.3495 39.7357 21.5351 40 22.6968 40C23.2481 40 23.7943 39.9405 24.338 39.8217C26.1736 39.4209 27.9336 38.3583 29.7186 36.5733L31.3791 34.9129C32.5235 33.7684 32.5235 31.9062 31.3791 30.7617L26.9511 26.3338ZM5.91858 9.45235C6.25125 9.11968 6.6935 8.93652 7.16393 8.93652C7.63436 8.93652 8.07662 9.11968 8.40929 9.45235L12.8371 13.8802C13.1698 14.2129 13.353 14.6551 13.353 15.1256C13.353 15.596 13.1697 16.0383 12.8371 16.3709L11.5918 17.6163L4.67314 10.6977L5.91858 9.45235ZM22.6906 38.8159C21.6781 38.8158 20.6433 38.584 19.5722 38.1243C16.5484 36.8264 13.4844 33.8995 9.79303 30.2082C6.10166 26.5169 3.17488 23.4528 1.87693 20.429C0.521909 17.2721 1.14889 14.4336 3.85102 11.536L10.7684 18.4533C8.72066 20.64 8.27144 22.3306 9.3053 23.8894C10.0408 24.9985 15.0027 29.9603 16.1119 30.6959C16.6483 31.0516 17.1999 31.2319 17.7822 31.2318C18.8925 31.2317 20.1137 30.5762 21.5479 29.233L28.4658 36.151C26.5511 37.9366 24.6625 38.816 22.6906 38.8159ZM30.5488 34.0826L29.3034 35.328L22.3848 28.4094L23.6302 27.1639C24.317 26.4772 25.4342 26.4772 26.121 27.1639L30.5488 31.5919C30.8815 31.9246 31.0646 32.3668 31.0646 32.8372C31.0646 33.3077 30.8814 33.7499 30.5488 34.0826Z" fill="url(#paint0_linear_2043_2908)"/>
<path d="M38.3907 1.59728C37.3574 0.566946 35.9861 0 34.528 0C34.5244 0 34.5206 0 34.5171 0C33.0548 0.0028179 31.6813 0.575478 30.6495 1.61231L30.3414 1.92189L30.0334 1.61231C29.0015 0.575399 27.6279 0.0028179 26.1657 0C26.1621 0 26.1586 0 26.1549 0C24.6969 0 23.3253 0.567024 22.2921 1.59728C22.1665 1.72252 22.0489 1.85277 21.9381 1.9867L21.5655 1.61231C20.5336 0.575478 19.1601 0.00289617 17.6979 0C17.6942 0 17.6906 0 17.687 0C16.2289 0 14.8574 0.567024 13.8242 1.59728C11.6862 3.72902 11.6795 7.20435 13.8092 9.34447L21.8735 17.448L26.1074 13.1934L30.3414 17.448L38.4058 9.34447C40.5355 7.20435 40.5287 3.72902 38.3907 1.59728ZM21.8735 15.7834L14.6413 8.51624C12.9679 6.83466 12.9731 4.1038 14.6532 2.42872C15.4648 1.61943 16.5419 1.17412 17.687 1.17412H17.6955C18.8439 1.17639 19.9227 1.62608 20.7332 2.44054L21.2798 2.98987C20.2352 5.04388 20.5658 7.62492 22.2771 9.34447L25.2792 12.3612L21.8735 15.7834ZM37.5736 8.51616L30.3414 15.7834L23.1093 8.51616C21.4358 6.83458 21.4411 4.10372 23.1211 2.42864C23.9327 1.61943 25.0098 1.17412 26.155 1.17412H26.1634C27.3118 1.17632 28.3906 1.62608 29.2011 2.44054L30.3413 3.58632L31.4816 2.44054C32.2921 1.62608 33.371 1.17632 34.5193 1.17412H34.5278C35.673 1.17412 36.7502 1.61951 37.5617 2.42872C39.2417 4.1038 39.247 6.83458 37.5736 8.51616Z" fill="url(#paint1_linear_2043_2908)"/>
<path d="M30.5396 26.0815L33.6701 22.951L34.5002 23.7811L31.3697 26.9116L30.5396 26.0815Z" fill="url(#paint2_linear_2043_2908)"/>
<path d="M28.0251 22.4258H29.1993V25.5568H28.0251V22.4258Z" fill="url(#paint3_linear_2043_2908)"/>
<path d="M31.8997 28.2573H35.0307V29.4314H31.8997V28.2573Z" fill="url(#paint4_linear_2043_2908)"/>
</g>
<defs>
<linearGradient id="paint0_linear_2043_2908" x1="-0.428595" y1="7.76379" x2="34.3284" y2="10.2029" gradientUnits="userSpaceOnUse">
<stop stop-color="#D4AF37"/>
<stop offset="0.25" stop-color="#CF953C"/>
<stop offset="0.677083" stop-color="#D4AF37"/>
<stop offset="1" stop-color="#CF953C"/>
</linearGradient>
<linearGradient id="paint1_linear_2043_2908" x1="11.8459" y1="-1.4512e-06" x2="41.5771" y2="3.32217" gradientUnits="userSpaceOnUse">
<stop stop-color="#D4AF37"/>
<stop offset="0.25" stop-color="#CF953C"/>
<stop offset="0.677083" stop-color="#D4AF37"/>
<stop offset="1" stop-color="#CF953C"/>
</linearGradient>
<linearGradient id="paint2_linear_2043_2908" x1="30.4978" y1="26.1233" x2="34.5067" y2="23.7923" gradientUnits="userSpaceOnUse">
<stop stop-color="#D4AF37"/>
<stop offset="0.25" stop-color="#CF953C"/>
<stop offset="0.677083" stop-color="#D4AF37"/>
<stop offset="1" stop-color="#CF953C"/>
</linearGradient>
<linearGradient id="paint3_linear_2043_2908" x1="28.0095" y1="22.4258" x2="29.2808" y2="22.4592" gradientUnits="userSpaceOnUse">
<stop stop-color="#D4AF37"/>
<stop offset="0.25" stop-color="#CF953C"/>
<stop offset="0.677083" stop-color="#D4AF37"/>
<stop offset="1" stop-color="#CF953C"/>
</linearGradient>
<linearGradient id="paint4_linear_2043_2908" x1="31.8579" y1="28.2573" x2="35.1356" y2="28.8707" gradientUnits="userSpaceOnUse">
<stop stop-color="#D4AF37"/>
<stop offset="0.25" stop-color="#CF953C"/>
<stop offset="0.677083" stop-color="#D4AF37"/>
<stop offset="1" stop-color="#CF953C"/>
</linearGradient>
<clipPath id="clip0_2043_2908">
<rect width="40" height="40" fill="white"/>
</clipPath>
</defs>
</svg>
